<svg width="784" height="560" viewBox="0 0 784 560" xmlns="http://www.w3.org/2000/svg" role="img" aria-label="Pixel art lifecycle stage examples for sapling, fern, succulent, blossom, and vine" shape-rendering="crispEdges">
<style>.label{font:10px monospace;fill:#24313A}.small{font:6px monospace;fill:#4b5a63}.o{fill:#24313A}.soil{fill:#6B3F24}.pot{fill:#B86F35}.potHi{fill:#E0A14A}.g0{fill:#2F7D32}.g1{fill:#4CAF50}.g2{fill:#8BCF5A}.g3{fill:#C7E86B}.wood{fill:#7A4A2A}.pink{fill:#F06CA7}.pink2{fill:#FFC0D9}.berry{fill:#8E3A8C}.dew{fill:#A7E7FF}</style>
<rect fill="#F7FAF4" width="100%" height="100%"/>
<text class="label" x="250" y="20">Plant lifecycle stage examples</text>
<text class="small" x="74" y="34">0 Seed</text>
<text class="small" x="178" y="34">1 Emergence</text>
<text class="small" x="282" y="34">2 Structure</text>
<text class="small" x="386" y="34">3 Expansion</text>
<text class="small" x="490" y="34">4 Foliage</text>
<text class="small" x="594" y="34">5 Maturity</text>
<text class="small" x="698" y="34">6 Flourish</text>
<text class="label" x="8" y="88">Sapling</text>
<rect x="50" y="36" width="76" height="82" fill="#FFFFFF" stroke="#D7E2D0"/>
<rect class="o" x="76" y="100" width="24" height="3"/><rect class="o" x="72" y="103" width="32" height="14"/><rect class="pot" x="74" y="104" width="28" height="11"/><rect class="potHi" x="76" y="104" width="8" height="2"/><rect class="soil" x="78" y="100" width="20" height="3"/><rect class="soil" x="84" y="98" width="8" height="2"/><rect class="o" x="86" y="95" width="5" height="3"/><rect class="soil" x="87" y="96" width="3" height="1"/>
<rect x="154" y="36" width="76" height="82" fill="#FFFFFF" stroke="#D7E2D0"/>
<rect class="o" x="180" y="100" width="24" height="3"/><rect class="o" x="176" y="103" width="32" height="14"/><rect class="pot" x="178" y="104" width="28" height="11"/><rect class="potHi" x="180" y="104" width="8" height="2"/><rect class="soil" x="182" y="100" width="20" height="3"/><rect class="o" x="191" y="86" width="3" height="12"/><rect class="g1" x="192" y="87" width="1" height="10"/><rect class="g2" x="193" y="85" width="5" height="3"/>
<rect x="258" y="36" width="76" height="82" fill="#FFFFFF" stroke="#D7E2D0"/>
<rect class="o" x="284" y="100" width="24" height="3"/><rect class="o" x="280" y="103" width="32" height="14"/><rect class="pot" x="282" y="104" width="28" height="11"/><rect class="potHi" x="284" y="104" width="8" height="2"/><rect class="soil" x="286" y="100" width="20" height="3"/><rect class="o" x="295" y="86" width="3" height="12"/><rect class="g1" x="296" y="87" width="1" height="10"/><rect class="g2" x="297" y="85" width="5" height="3"/><rect class="o" x="294" y="75" width="5" height="24"/><rect class="wood" x="295" y="76" width="3" height="22"/>
<rect x="362" y="36" width="76" height="82" fill="#FFFFFF" stroke="#D7E2D0"/>
<rect class="o" x="388" y="100" width="24" height="3"/><rect class="o" x="384" y="103" width="32" height="14"/><rect class="pot" x="386" y="104" width="28" height="11"/><rect class="potHi" x="388" y="104" width="8" height="2"/><rect class="soil" x="390" y="100" width="20" height="3"/><rect class="o" x="399" y="86" width="3" height="12"/><rect class="g1" x="400" y="87" width="1" height="10"/><rect class="g2" x="401" y="85" width="5" height="3"/><rect class="o" x="398" y="75" width="5" height="24"/><rect class="wood" x="399" y="76" width="3" height="22"/><rect class="o" x="386" y="72" width="14" height="3"/><rect class="wood" x="387" y="73" width="12" height="1"/><rect class="o" x="402" y="66" width="15" height="3"/><rect class="wood" x="402" y="67" width="13" height="1"/>
<rect x="466" y="36" width="76" height="82" fill="#FFFFFF" stroke="#D7E2D0"/>
<rect class="o" x="492" y="100" width="24" height="3"/><rect class="o" x="488" y="103" width="32" height="14"/><rect class="pot" x="490" y="104" width="28" height="11"/><rect class="potHi" x="492" y="104" width="8" height="2"/><rect class="soil" x="494" y="100" width="20" height="3"/><rect class="o" x="503" y="86" width="3" height="12"/><rect class="g1" x="504" y="87" width="1" height="10"/><rect class="g2" x="505" y="85" width="5" height="3"/><rect class="o" x="502" y="75" width="5" height="24"/><rect class="wood" x="503" y="76" width="3" height="22"/><rect class="o" x="490" y="72" width="14" height="3"/><rect class="wood" x="491" y="73" width="12" height="1"/><rect class="o" x="506" y="66" width="15" height="3"/><rect class="wood" x="506" y="67" width="13" height="1"/><rect class="o" x="484" y="61" width="18" height="12"/><rect class="g1" x="485" y="62" width="16" height="10"/><rect class="o" x="508" y="55" width="22" height="14"/><rect class="g0" x="509" y="56" width="20" height="12"/><rect class="g2" x="512" y="54" width="7" height="2"/>
<rect x="570" y="36" width="76" height="82" fill="#FFFFFF" stroke="#D7E2D0"/>
<rect class="o" x="596" y="100" width="24" height="3"/><rect class="o" x="592" y="103" width="32" height="14"/><rect class="pot" x="594" y="104" width="28" height="11"/><rect class="potHi" x="596" y="104" width="8" height="2"/><rect class="soil" x="598" y="100" width="20" height="3"/><rect class="o" x="607" y="86" width="3" height="12"/><rect class="g1" x="608" y="87" width="1" height="10"/><rect class="g2" x="609" y="85" width="5" height="3"/><rect class="o" x="606" y="75" width="5" height="24"/><rect class="wood" x="607" y="76" width="3" height="22"/><rect class="o" x="594" y="72" width="14" height="3"/><rect class="wood" x="595" y="73" width="12" height="1"/><rect class="o" x="610" y="66" width="15" height="3"/><rect class="wood" x="610" y="67" width="13" height="1"/><rect class="o" x="588" y="61" width="18" height="12"/><rect class="g1" x="589" y="62" width="16" height="10"/><rect class="o" x="612" y="55" width="22" height="14"/><rect class="g0" x="613" y="56" width="20" height="12"/><rect class="g2" x="616" y="54" width="7" height="2"/><rect class="o" x="596" y="50" width="28" height="17"/><rect class="g1" x="597" y="51" width="26" height="15"/><rect class="g3" x="612" y="49" width="7" height="2"/>
<rect x="674" y="36" width="76" height="82" fill="#FFFFFF" stroke="#D7E2D0"/>
<rect class="o" x="700" y="100" width="24" height="3"/><rect class="o" x="696" y="103" width="32" height="14"/><rect class="pot" x="698" y="104" width="28" height="11"/><rect class="potHi" x="700" y="104" width="8" height="2"/><rect class="soil" x="702" y="100" width="20" height="3"/><rect class="o" x="711" y="86" width="3" height="12"/><rect class="g1" x="712" y="87" width="1" height="10"/><rect class="g2" x="713" y="85" width="5" height="3"/><rect class="o" x="710" y="75" width="5" height="24"/><rect class="wood" x="711" y="76" width="3" height="22"/><rect class="o" x="698" y="72" width="14" height="3"/><rect class="wood" x="699" y="73" width="12" height="1"/><rect class="o" x="714" y="66" width="15" height="3"/><rect class="wood" x="714" y="67" width="13" height="1"/><rect class="o" x="692" y="61" width="18" height="12"/><rect class="g1" x="693" y="62" width="16" height="10"/><rect class="o" x="716" y="55" width="22" height="14"/><rect class="g0" x="717" y="56" width="20" height="12"/><rect class="g2" x="720" y="54" width="7" height="2"/><rect class="o" x="700" y="50" width="28" height="17"/><rect class="g1" x="701" y="51" width="26" height="15"/><rect class="g3" x="716" y="49" width="7" height="2"/><rect class="pink" x="697" y="57" width="3" height="3"/><rect class="pink2" x="725" y="51" width="3" height="3"/><rect class="berry" x="733" y="63" width="2" height="2"/>
<text class="label" x="8" y="184">Fern</text>
<rect x="50" y="132" width="76" height="82" fill="#FFFFFF" stroke="#D7E2D0"/>
<rect class="o" x="76" y="196" width="24" height="3"/><rect class="o" x="72" y="199" width="32" height="14"/><rect class="pot" x="74" y="200" width="28" height="11"/><rect class="potHi" x="76" y="200" width="8" height="2"/><rect class="soil" x="78" y="196" width="20" height="3"/><rect class="soil" x="84" y="194" width="8" height="2"/><rect class="o" x="86" y="191" width="5" height="3"/><rect class="soil" x="87" y="192" width="3" height="1"/>
<rect x="154" y="132" width="76" height="82" fill="#FFFFFF" stroke="#D7E2D0"/>
<rect class="o" x="180" y="196" width="24" height="3"/><rect class="o" x="176" y="199" width="32" height="14"/><rect class="pot" x="178" y="200" width="28" height="11"/><rect class="potHi" x="180" y="200" width="8" height="2"/><rect class="soil" x="182" y="196" width="20" height="3"/><rect class="o" x="191" y="186" width="5" height="8"/><rect class="g1" x="192" y="187" width="3" height="6"/><rect class="g2" x="195" y="184" width="4" height="3"/>
<rect x="258" y="132" width="76" height="82" fill="#FFFFFF" stroke="#D7E2D0"/>
<rect class="o" x="284" y="196" width="24" height="3"/><rect class="o" x="280" y="199" width="32" height="14"/><rect class="pot" x="282" y="200" width="28" height="11"/><rect class="potHi" x="284" y="200" width="8" height="2"/><rect class="soil" x="286" y="196" width="20" height="3"/><rect class="o" x="295" y="186" width="5" height="8"/><rect class="g1" x="296" y="187" width="3" height="6"/><rect class="g2" x="299" y="184" width="4" height="3"/><rect class="o" x="295" y="164" width="3" height="30"/><rect class="g1" x="296" y="165" width="1" height="28"/><rect class="o" x="297" y="171" width="16" height="3"/><rect class="g2" x="297" y="172" width="15" height="1"/>
<rect x="362" y="132" width="76" height="82" fill="#FFFFFF" stroke="#D7E2D0"/>
<rect class="o" x="388" y="196" width="24" height="3"/><rect class="o" x="384" y="199" width="32" height="14"/><rect class="pot" x="386" y="200" width="28" height="11"/><rect class="potHi" x="388" y="200" width="8" height="2"/><rect class="soil" x="390" y="196" width="20" height="3"/><rect class="o" x="399" y="186" width="5" height="8"/><rect class="g1" x="400" y="187" width="3" height="6"/><rect class="g2" x="403" y="184" width="4" height="3"/><rect class="o" x="399" y="164" width="3" height="30"/><rect class="g1" x="400" y="165" width="1" height="28"/><rect class="o" x="401" y="171" width="16" height="3"/><rect class="g2" x="401" y="172" width="15" height="1"/><rect class="o" x="378" y="170" width="21" height="3"/><rect class="g1" x="379" y="171" width="20" height="1"/><rect class="o" x="401" y="161" width="23" height="3"/><rect class="g0" x="401" y="162" width="22" height="1"/><rect class="o" x="383" y="157" width="18" height="3"/><rect class="g2" x="384" y="158" width="17" height="1"/>
<rect x="466" y="132" width="76" height="82" fill="#FFFFFF" stroke="#D7E2D0"/>
<rect class="o" x="492" y="196" width="24" height="3"/><rect class="o" x="488" y="199" width="32" height="14"/><rect class="pot" x="490" y="200" width="28" height="11"/><rect class="potHi" x="492" y="200" width="8" height="2"/><rect class="soil" x="494" y="196" width="20" height="3"/><rect class="o" x="503" y="186" width="5" height="8"/><rect class="g1" x="504" y="187" width="3" height="6"/><rect class="g2" x="507" y="184" width="4" height="3"/><rect class="o" x="503" y="164" width="3" height="30"/><rect class="g1" x="504" y="165" width="1" height="28"/><rect class="o" x="505" y="171" width="16" height="3"/><rect class="g2" x="505" y="172" width="15" height="1"/><rect class="o" x="482" y="170" width="21" height="3"/><rect class="g1" x="483" y="171" width="20" height="1"/><rect class="o" x="505" y="161" width="23" height="3"/><rect class="g0" x="505" y="162" width="22" height="1"/><rect class="o" x="487" y="157" width="18" height="3"/><rect class="g2" x="488" y="158" width="17" height="1"/><rect class="o" x="477" y="177" width="25" height="3"/><rect class="g1" x="478" y="178" width="24" height="1"/><rect class="o" x="506" y="177" width="27" height="3"/><rect class="g1" x="506" y="178" width="26" height="1"/>
<rect x="570" y="132" width="76" height="82" fill="#FFFFFF" stroke="#D7E2D0"/>
<rect class="o" x="596" y="196" width="24" height="3"/><rect class="o" x="592" y="199" width="32" height="14"/><rect class="pot" x="594" y="200" width="28" height="11"/><rect class="potHi" x="596" y="200" width="8" height="2"/><rect class="soil" x="598" y="196" width="20" height="3"/><rect class="o" x="607" y="186" width="5" height="8"/><rect class="g1" x="608" y="187" width="3" height="6"/><rect class="g2" x="611" y="184" width="4" height="3"/><rect class="o" x="607" y="164" width="3" height="30"/><rect class="g1" x="608" y="165" width="1" height="28"/><rect class="o" x="609" y="171" width="16" height="3"/><rect class="g2" x="609" y="172" width="15" height="1"/><rect class="o" x="586" y="170" width="21" height="3"/><rect class="g1" x="587" y="171" width="20" height="1"/><rect class="o" x="609" y="161" width="23" height="3"/><rect class="g0" x="609" y="162" width="22" height="1"/><rect class="o" x="591" y="157" width="18" height="3"/><rect class="g2" x="592" y="158" width="17" height="1"/><rect class="o" x="581" y="177" width="25" height="3"/><rect class="g1" x="582" y="178" width="24" height="1"/><rect class="o" x="610" y="177" width="27" height="3"/><rect class="g1" x="610" y="178" width="26" height="1"/><rect class="g3" x="585" y="167" width="3" height="2"/><rect class="g3" x="628" y="158" width="3" height="2"/><rect class="g2" x="596" y="154" width="3" height="2"/>
<rect x="674" y="132" width="76" height="82" fill="#FFFFFF" stroke="#D7E2D0"/>
<rect class="o" x="700" y="196" width="24" height="3"/><rect class="o" x="696" y="199" width="32" height="14"/><rect class="pot" x="698" y="200" width="28" height="11"/><rect class="potHi" x="700" y="200" width="8" height="2"/><rect class="soil" x="702" y="196" width="20" height="3"/><rect class="o" x="711" y="186" width="5" height="8"/><rect class="g1" x="712" y="187" width="3" height="6"/><rect class="g2" x="715" y="184" width="4" height="3"/><rect class="o" x="711" y="164" width="3" height="30"/><rect class="g1" x="712" y="165" width="1" height="28"/><rect class="o" x="713" y="171" width="16" height="3"/><rect class="g2" x="713" y="172" width="15" height="1"/><rect class="o" x="690" y="170" width="21" height="3"/><rect class="g1" x="691" y="171" width="20" height="1"/><rect class="o" x="713" y="161" width="23" height="3"/><rect class="g0" x="713" y="162" width="22" height="1"/><rect class="o" x="695" y="157" width="18" height="3"/><rect class="g2" x="696" y="158" width="17" height="1"/><rect class="o" x="685" y="177" width="25" height="3"/><rect class="g1" x="686" y="178" width="24" height="1"/><rect class="o" x="714" y="177" width="27" height="3"/><rect class="g1" x="714" y="178" width="26" height="1"/><rect class="g3" x="689" y="167" width="3" height="2"/><rect class="g3" x="732" y="158" width="3" height="2"/><rect class="g2" x="700" y="154" width="3" height="2"/><rect class="dew" x="694" y="169" width="2" height="2"/><rect class="dew" x="726" y="161" width="2" height="2"/><rect class="soil" x="717" y="182" width="3" height="2"/>
<text class="label" x="8" y="280">Succulent</text>
<rect x="50" y="228" width="76" height="82" fill="#FFFFFF" stroke="#D7E2D0"/>
<rect class="o" x="76" y="292" width="24" height="3"/><rect class="o" x="72" y="295" width="32" height="14"/><rect class="pot" x="74" y="296" width="28" height="11"/><rect class="potHi" x="76" y="296" width="8" height="2"/><rect class="soil" x="78" y="292" width="20" height="3"/><rect class="soil" x="84" y="290" width="8" height="2"/><rect class="o" x="86" y="287" width="5" height="3"/><rect class="soil" x="87" y="288" width="3" height="1"/>
<rect x="154" y="228" width="76" height="82" fill="#FFFFFF" stroke="#D7E2D0"/>
<rect class="o" x="180" y="292" width="24" height="3"/><rect class="o" x="176" y="295" width="32" height="14"/><rect class="pot" x="178" y="296" width="28" height="11"/><rect class="potHi" x="180" y="296" width="8" height="2"/><rect class="soil" x="182" y="292" width="20" height="3"/><rect class="o" x="187" y="280" width="11" height="9"/><rect class="g1" x="188" y="281" width="9" height="7"/>
<rect x="258" y="228" width="76" height="82" fill="#FFFFFF" stroke="#D7E2D0"/>
<rect class="o" x="284" y="292" width="24" height="3"/><rect class="o" x="280" y="295" width="32" height="14"/><rect class="pot" x="282" y="296" width="28" height="11"/><rect class="potHi" x="284" y="296" width="8" height="2"/><rect class="soil" x="286" y="292" width="20" height="3"/><rect class="o" x="291" y="280" width="11" height="9"/><rect class="g1" x="292" y="281" width="9" height="7"/><rect class="o" x="283" y="277" width="10" height="11"/><rect class="g0" x="284" y="278" width="8" height="9"/><rect class="o" x="300" y="277" width="10" height="11"/><rect class="g2" x="301" y="278" width="8" height="9"/>
<rect x="362" y="228" width="76" height="82" fill="#FFFFFF" stroke="#D7E2D0"/>
<rect class="o" x="388" y="292" width="24" height="3"/><rect class="o" x="384" y="295" width="32" height="14"/><rect class="pot" x="386" y="296" width="28" height="11"/><rect class="potHi" x="388" y="296" width="8" height="2"/><rect class="soil" x="390" y="292" width="20" height="3"/><rect class="o" x="395" y="280" width="11" height="9"/><rect class="g1" x="396" y="281" width="9" height="7"/><rect class="o" x="387" y="277" width="10" height="11"/><rect class="g0" x="388" y="278" width="8" height="9"/><rect class="o" x="404" y="277" width="10" height="11"/><rect class="g2" x="405" y="278" width="8" height="9"/><rect class="o" x="381" y="272" width="13" height="12"/><rect class="g1" x="382" y="273" width="11" height="10"/><rect class="o" x="408" y="272" width="13" height="12"/><rect class="g1" x="409" y="273" width="11" height="10"/>
<rect x="466" y="228" width="76" height="82" fill="#FFFFFF" stroke="#D7E2D0"/>
<rect class="o" x="492" y="292" width="24" height="3"/><rect class="o" x="488" y="295" width="32" height="14"/><rect class="pot" x="490" y="296" width="28" height="11"/><rect class="potHi" x="492" y="296" width="8" height="2"/><rect class="soil" x="494" y="292" width="20" height="3"/><rect class="o" x="499" y="280" width="11" height="9"/><rect class="g1" x="500" y="281" width="9" height="7"/><rect class="o" x="491" y="277" width="10" height="11"/><rect class="g0" x="492" y="278" width="8" height="9"/><rect class="o" x="508" y="277" width="10" height="11"/><rect class="g2" x="509" y="278" width="8" height="9"/><rect class="o" x="485" y="272" width="13" height="12"/><rect class="g1" x="486" y="273" width="11" height="10"/><rect class="o" x="512" y="272" width="13" height="12"/><rect class="g1" x="513" y="273" width="11" height="10"/><rect class="o" x="495" y="267" width="18" height="12"/><rect class="g2" x="496" y="268" width="16" height="10"/><rect class="g3" x="502" y="265" width="5" height="3"/>
<rect x="570" y="228" width="76" height="82" fill="#FFFFFF" stroke="#D7E2D0"/>
<rect class="o" x="596" y="292" width="24" height="3"/><rect class="o" x="592" y="295" width="32" height="14"/><rect class="pot" x="594" y="296" width="28" height="11"/><rect class="potHi" x="596" y="296" width="8" height="2"/><rect class="soil" x="598" y="292" width="20" height="3"/><rect class="o" x="603" y="280" width="11" height="9"/><rect class="g1" x="604" y="281" width="9" height="7"/><rect class="o" x="595" y="277" width="10" height="11"/><rect class="g0" x="596" y="278" width="8" height="9"/><rect class="o" x="612" y="277" width="10" height="11"/><rect class="g2" x="613" y="278" width="8" height="9"/><rect class="o" x="589" y="272" width="13" height="12"/><rect class="g1" x="590" y="273" width="11" height="10"/><rect class="o" x="616" y="272" width="13" height="12"/><rect class="g1" x="617" y="273" width="11" height="10"/><rect class="o" x="599" y="267" width="18" height="12"/><rect class="g2" x="600" y="268" width="16" height="10"/><rect class="g3" x="606" y="265" width="5" height="3"/><rect class="g3" x="593" y="275" width="4" height="2"/><rect class="g3" x="620" y="275" width="4" height="2"/>
<rect x="674" y="228" width="76" height="82" fill="#FFFFFF" stroke="#D7E2D0"/>
<rect class="o" x="700" y="292" width="24" height="3"/><rect class="o" x="696" y="295" width="32" height="14"/><rect class="pot" x="698" y="296" width="28" height="11"/><rect class="potHi" x="700" y="296" width="8" height="2"/><rect class="soil" x="702" y="292" width="20" height="3"/><rect class="o" x="707" y="280" width="11" height="9"/><rect class="g1" x="708" y="281" width="9" height="7"/><rect class="o" x="699" y="277" width="10" height="11"/><rect class="g0" x="700" y="278" width="8" height="9"/><rect class="o" x="716" y="277" width="10" height="11"/><rect class="g2" x="717" y="278" width="8" height="9"/><rect class="o" x="693" y="272" width="13" height="12"/><rect class="g1" x="694" y="273" width="11" height="10"/><rect class="o" x="720" y="272" width="13" height="12"/><rect class="g1" x="721" y="273" width="11" height="10"/><rect class="o" x="703" y="267" width="18" height="12"/><rect class="g2" x="704" y="268" width="16" height="10"/><rect class="g3" x="710" y="265" width="5" height="3"/><rect class="g3" x="697" y="275" width="4" height="2"/><rect class="g3" x="724" y="275" width="4" height="2"/><rect class="o" x="687" y="282" width="8" height="7"/><rect class="g1" x="688" y="283" width="6" height="5"/><rect class="o" x="726" y="254" width="2" height="25"/><rect class="pink" x="724" y="250" width="6" height="4"/><rect class="pink2" x="726" y="248" width="2" height="2"/>
<text class="label" x="8" y="376">Blossom</text>
<rect x="50" y="324" width="76" height="82" fill="#FFFFFF" stroke="#D7E2D0"/>
<rect class="o" x="76" y="388" width="24" height="3"/><rect class="o" x="72" y="391" width="32" height="14"/><rect class="pot" x="74" y="392" width="28" height="11"/><rect class="potHi" x="76" y="392" width="8" height="2"/><rect class="soil" x="78" y="388" width="20" height="3"/><rect class="soil" x="84" y="386" width="8" height="2"/><rect class="o" x="86" y="383" width="5" height="3"/><rect class="soil" x="87" y="384" width="3" height="1"/>
<rect x="154" y="324" width="76" height="82" fill="#FFFFFF" stroke="#D7E2D0"/>
<rect class="o" x="180" y="388" width="24" height="3"/><rect class="o" x="176" y="391" width="32" height="14"/><rect class="pot" x="178" y="392" width="28" height="11"/><rect class="potHi" x="180" y="392" width="8" height="2"/><rect class="soil" x="182" y="388" width="20" height="3"/><rect class="o" x="191" y="372" width="3" height="14"/><rect class="g1" x="192" y="373" width="1" height="12"/>
<rect x="258" y="324" width="76" height="82" fill="#FFFFFF" stroke="#D7E2D0"/>
<rect class="o" x="284" y="388" width="24" height="3"/><rect class="o" x="280" y="391" width="32" height="14"/><rect class="pot" x="282" y="392" width="28" height="11"/><rect class="potHi" x="284" y="392" width="8" height="2"/><rect class="soil" x="286" y="388" width="20" height="3"/><rect class="o" x="295" y="372" width="3" height="14"/><rect class="g1" x="296" y="373" width="1" height="12"/><rect class="o" x="295" y="354" width="3" height="32"/><rect class="g1" x="296" y="355" width="1" height="30"/>
<rect x="362" y="324" width="76" height="82" fill="#FFFFFF" stroke="#D7E2D0"/>
<rect class="o" x="388" y="388" width="24" height="3"/><rect class="o" x="384" y="391" width="32" height="14"/><rect class="pot" x="386" y="392" width="28" height="11"/><rect class="potHi" x="388" y="392" width="8" height="2"/><rect class="soil" x="390" y="388" width="20" height="3"/><rect class="o" x="399" y="372" width="3" height="14"/><rect class="g1" x="400" y="373" width="1" height="12"/><rect class="o" x="399" y="354" width="3" height="32"/><rect class="g1" x="400" y="355" width="1" height="30"/><rect class="o" x="384" y="364" width="15" height="4"/><rect class="g1" x="385" y="365" width="14" height="2"/><rect class="o" x="402" y="369" width="16" height="4"/><rect class="g0" x="402" y="370" width="15" height="2"/>
<rect x="466" y="324" width="76" height="82" fill="#FFFFFF" stroke="#D7E2D0"/>
<rect class="o" x="492" y="388" width="24" height="3"/><rect class="o" x="488" y="391" width="32" height="14"/><rect class="pot" x="490" y="392" width="28" height="11"/><rect class="potHi" x="492" y="392" width="8" height="2"/><rect class="soil" x="494" y="388" width="20" height="3"/><rect class="o" x="503" y="372" width="3" height="14"/><rect class="g1" x="504" y="373" width="1" height="12"/><rect class="o" x="503" y="354" width="3" height="32"/><rect class="g1" x="504" y="355" width="1" height="30"/><rect class="o" x="488" y="364" width="15" height="4"/><rect class="g1" x="489" y="365" width="14" height="2"/><rect class="o" x="506" y="369" width="16" height="4"/><rect class="g0" x="506" y="370" width="15" height="2"/><rect class="o" x="493" y="346" width="8" height="8"/><rect class="g0" x="494" y="347" width="6" height="6"/><rect class="o" x="508" y="343" width="8" height="8"/><rect class="g0" x="509" y="344" width="6" height="6"/>
<rect x="570" y="324" width="76" height="82" fill="#FFFFFF" stroke="#D7E2D0"/>
<rect class="o" x="596" y="388" width="24" height="3"/><rect class="o" x="592" y="391" width="32" height="14"/><rect class="pot" x="594" y="392" width="28" height="11"/><rect class="potHi" x="596" y="392" width="8" height="2"/><rect class="soil" x="598" y="388" width="20" height="3"/><rect class="o" x="607" y="372" width="3" height="14"/><rect class="g1" x="608" y="373" width="1" height="12"/><rect class="o" x="607" y="354" width="3" height="32"/><rect class="g1" x="608" y="355" width="1" height="30"/><rect class="o" x="592" y="364" width="15" height="4"/><rect class="g1" x="593" y="365" width="14" height="2"/><rect class="o" x="610" y="369" width="16" height="4"/><rect class="g0" x="610" y="370" width="15" height="2"/><rect class="o" x="597" y="346" width="8" height="8"/><rect class="g0" x="598" y="347" width="6" height="6"/><rect class="o" x="612" y="343" width="8" height="8"/><rect class="g0" x="613" y="344" width="6" height="6"/><rect class="pink" x="596" y="343" width="10" height="10"/><rect class="pink2" x="599" y="340" width="4" height="3"/><rect class="pink" x="611" y="340" width="11" height="11"/><rect class="pink2" x="615" y="337" width="4" height="3"/>
<rect x="674" y="324" width="76" height="82" fill="#FFFFFF" stroke="#D7E2D0"/>
<rect class="o" x="700" y="388" width="24" height="3"/><rect class="o" x="696" y="391" width="32" height="14"/><rect class="pot" x="698" y="392" width="28" height="11"/><rect class="potHi" x="700" y="392" width="8" height="2"/><rect class="soil" x="702" y="388" width="20" height="3"/><rect class="o" x="711" y="372" width="3" height="14"/><rect class="g1" x="712" y="373" width="1" height="12"/><rect class="o" x="711" y="354" width="3" height="32"/><rect class="g1" x="712" y="355" width="1" height="30"/><rect class="o" x="696" y="364" width="15" height="4"/><rect class="g1" x="697" y="365" width="14" height="2"/><rect class="o" x="714" y="369" width="16" height="4"/><rect class="g0" x="714" y="370" width="15" height="2"/><rect class="o" x="701" y="346" width="8" height="8"/><rect class="g0" x="702" y="347" width="6" height="6"/><rect class="o" x="716" y="343" width="8" height="8"/><rect class="g0" x="717" y="344" width="6" height="6"/><rect class="pink" x="700" y="343" width="10" height="10"/><rect class="pink2" x="703" y="340" width="4" height="3"/><rect class="pink" x="715" y="340" width="11" height="11"/><rect class="pink2" x="719" y="337" width="4" height="3"/><rect class="pink2" x="690" y="354" width="6" height="6"/><rect class="berry" x="705" y="347" width="2" height="2"/><rect class="berry" x="720" y="344" width="2" height="2"/>
<text class="label" x="8" y="472">Vine</text>
<rect x="50" y="420" width="76" height="82" fill="#FFFFFF" stroke="#D7E2D0"/>
<rect class="o" x="76" y="484" width="24" height="3"/><rect class="o" x="72" y="487" width="32" height="14"/><rect class="pot" x="74" y="488" width="28" height="11"/><rect class="potHi" x="76" y="488" width="8" height="2"/><rect class="soil" x="78" y="484" width="20" height="3"/><rect class="soil" x="84" y="482" width="8" height="2"/><rect class="o" x="86" y="479" width="5" height="3"/><rect class="soil" x="87" y="480" width="3" height="1"/>
<rect x="154" y="420" width="76" height="82" fill="#FFFFFF" stroke="#D7E2D0"/>
<rect class="o" x="180" y="484" width="24" height="3"/><rect class="o" x="176" y="487" width="32" height="14"/><rect class="pot" x="178" y="488" width="28" height="11"/><rect class="potHi" x="180" y="488" width="8" height="2"/><rect class="soil" x="182" y="484" width="20" height="3"/><rect class="o" x="191" y="471" width="3" height="11"/><rect class="g1" x="192" y="472" width="1" height="10"/>
<rect x="258" y="420" width="76" height="82" fill="#FFFFFF" stroke="#D7E2D0"/>
<rect class="o" x="284" y="484" width="24" height="3"/><rect class="o" x="280" y="487" width="32" height="14"/><rect class="pot" x="282" y="488" width="28" height="11"/><rect class="potHi" x="284" y="488" width="8" height="2"/><rect class="soil" x="286" y="484" width="20" height="3"/><rect class="o" x="295" y="471" width="3" height="11"/><rect class="g1" x="296" y="472" width="1" height="10"/><rect class="o" x="295" y="448" width="3" height="34"/><rect class="g1" x="296" y="449" width="1" height="33"/><rect class="o" x="297" y="448" width="13" height="3"/><rect class="g2" x="297" y="449" width="12" height="1"/>
<rect x="362" y="420" width="76" height="82" fill="#FFFFFF" stroke="#D7E2D0"/>
<rect class="o" x="388" y="484" width="24" height="3"/><rect class="o" x="384" y="487" width="32" height="14"/><rect class="pot" x="386" y="488" width="28" height="11"/><rect class="potHi" x="388" y="488" width="8" height="2"/><rect class="soil" x="390" y="484" width="20" height="3"/><rect class="o" x="399" y="471" width="3" height="11"/><rect class="g1" x="400" y="472" width="1" height="10"/><rect class="o" x="399" y="448" width="3" height="34"/><rect class="g1" x="400" y="449" width="1" height="33"/><rect class="o" x="401" y="448" width="13" height="3"/><rect class="g2" x="401" y="449" width="12" height="1"/><rect class="o" x="382" y="453" width="19" height="3"/><rect class="g1" x="383" y="454" width="18" height="1"/><rect class="o" x="412" y="443" width="3" height="13"/><rect class="g1" x="413" y="444" width="1" height="12"/>
<rect x="466" y="420" width="76" height="82" fill="#FFFFFF" stroke="#D7E2D0"/>
<rect class="o" x="492" y="484" width="24" height="3"/><rect class="o" x="488" y="487" width="32" height="14"/><rect class="pot" x="490" y="488" width="28" height="11"/><rect class="potHi" x="492" y="488" width="8" height="2"/><rect class="soil" x="494" y="484" width="20" height="3"/><rect class="o" x="503" y="471" width="3" height="11"/><rect class="g1" x="504" y="472" width="1" height="10"/><rect class="o" x="503" y="448" width="3" height="34"/><rect class="g1" x="504" y="449" width="1" height="33"/><rect class="o" x="505" y="448" width="13" height="3"/><rect class="g2" x="505" y="449" width="12" height="1"/><rect class="o" x="486" y="453" width="19" height="3"/><rect class="g1" x="487" y="454" width="18" height="1"/><rect class="o" x="516" y="443" width="3" height="13"/><rect class="g1" x="517" y="444" width="1" height="12"/><rect class="o" x="484" y="448" width="8" height="7"/><rect class="g1" x="485" y="449" width="6" height="5"/><rect class="o" x="510" y="456" width="9" height="7"/><rect class="g0" x="511" y="457" width="7" height="5"/>
<rect x="570" y="420" width="76" height="82" fill="#FFFFFF" stroke="#D7E2D0"/>
<rect class="o" x="596" y="484" width="24" height="3"/><rect class="o" x="592" y="487" width="32" height="14"/><rect class="pot" x="594" y="488" width="28" height="11"/><rect class="potHi" x="596" y="488" width="8" height="2"/><rect class="soil" x="598" y="484" width="20" height="3"/><rect class="o" x="607" y="471" width="3" height="11"/><rect class="g1" x="608" y="472" width="1" height="10"/><rect class="o" x="607" y="448" width="3" height="34"/><rect class="g1" x="608" y="449" width="1" height="33"/><rect class="o" x="609" y="448" width="13" height="3"/><rect class="g2" x="609" y="449" width="12" height="1"/><rect class="o" x="590" y="453" width="19" height="3"/><rect class="g1" x="591" y="454" width="18" height="1"/><rect class="o" x="620" y="443" width="3" height="13"/><rect class="g1" x="621" y="444" width="1" height="12"/><rect class="o" x="588" y="448" width="8" height="7"/><rect class="g1" x="589" y="449" width="6" height="5"/><rect class="o" x="614" y="456" width="9" height="7"/><rect class="g0" x="615" y="457" width="7" height="5"/><rect class="o" x="582" y="462" width="25" height="3"/><rect class="g1" x="583" y="463" width="24" height="1"/><rect class="g2" x="580" y="460" width="4" height="3"/>
<rect x="674" y="420" width="76" height="82" fill="#FFFFFF" stroke="#D7E2D0"/>
<rect class="o" x="700" y="484" width="24" height="3"/><rect class="o" x="696" y="487" width="32" height="14"/><rect class="pot" x="698" y="488" width="28" height="11"/><rect class="potHi" x="700" y="488" width="8" height="2"/><rect class="soil" x="702" y="484" width="20" height="3"/><rect class="o" x="711" y="471" width="3" height="11"/><rect class="g1" x="712" y="472" width="1" height="10"/><rect class="o" x="711" y="448" width="3" height="34"/><rect class="g1" x="712" y="449" width="1" height="33"/><rect class="o" x="713" y="448" width="13" height="3"/><rect class="g2" x="713" y="449" width="12" height="1"/><rect class="o" x="694" y="453" width="19" height="3"/><rect class="g1" x="695" y="454" width="18" height="1"/><rect class="o" x="724" y="443" width="3" height="13"/><rect class="g1" x="725" y="444" width="1" height="12"/><rect class="o" x="692" y="448" width="8" height="7"/><rect class="g1" x="693" y="449" width="6" height="5"/><rect class="o" x="718" y="456" width="9" height="7"/><rect class="g0" x="719" y="457" width="7" height="5"/><rect class="o" x="686" y="462" width="25" height="3"/><rect class="g1" x="687" y="463" width="24" height="1"/><rect class="g2" x="684" y="460" width="4" height="3"/><rect class="berry" x="697" y="446" width="3" height="3"/><rect class="pink" x="726" y="441" width="4" height="4"/><rect class="berry" x="721" y="454" width="3" height="3"/>
</svg>